<?xml version="1.0" ?><!DOCTYPE svg  PUBLIC '-//W3C//DTD SVG 1.1//EN'  'http://www.w3.org/Graphics/SVG/1.1/DTD/svg11.dtd'><svg height="6.82666in" style="shape-rendering:geometricPrecision; text-rendering:geometricPrecision; image-rendering:optimizeQuality; fill-rule:evenodd; clip-rule:evenodd" viewBox="0 0 6.82666 6.82666" width="6.82666in" xml:space="preserve" xmlns="http://www.w3.org/2000/svg" xmlns:xlink="http://www.w3.org/1999/xlink"><defs><style type="text/css">
   <![CDATA[
    .fil1 {fill:none}
    .fil0 {fill:black;fill-rule:nonzero}
   ]]>
  </style></defs><g id="Layer_x0020_1"><path class="fil0" d="M2.61855 4.07704l2.5992 -2.5992c0.0943858,-0.0943858 0.218677,-0.141583 0.342882,-0.141583 0.124205,0 0.2485,0.0471929 0.342882,0.141583l0.121571 0.121567c0.0943898,0.0943819 0.141583,0.218677 0.141583,0.342882 0,0.124205 -0.0471969,0.248496 -0.141583,0.342882l-3.06366 3.06365 -7.87402e-006 7.87402e-006c-0.0943819,0.0943819 -0.218673,0.141575 -0.342874,0.141575 -0.124201,0 -0.248492,-0.0471929 -0.342874,-0.141575l-7.87402e-006 -7.87402e-006 -7.87402e-006 7.87402e-006 -0.000559055 -0.000574803 -7.87402e-006 7.87402e-006 -0.00057874 -0.000590551 -0.120413 -0.120417 -1.35252 -1.35252c-0.0943898,-0.0943819 -0.141583,-0.218677 -0.141583,-0.342882 0,-0.124205 0.0471929,-0.2485 0.141583,-0.342882l0.121571 -0.121571c0.0943819,-0.0943898 0.218677,-0.141583 0.342882,-0.141583 0.124205,0 0.248496,0.0471969 0.342882,0.141583l1.00963 1.00964zm2.75004 -2.44837l-2.67402 2.67402 -0.000590551 0.000606299c-0.0416535,0.0416535 -0.109197,0.0416535 -0.15085,0l7.87402e-006 -7.87402e-006 -1.08505 -1.08506c-0.0527165,-0.0527165 -0.122343,-0.0790787 -0.192047,-0.0790787 -0.0697047,0 -0.139335,0.0263622 -0.192047,0.0790787l-0.121571 0.121571c-0.0527165,0.0527126 -0.0790787,0.122343 -0.0790787,0.192047 0,0.0697047 0.0263622,0.139335 0.0790787,0.192047l1.35252 1.35252 0.12022 0.120224 0.000393701 0.00038189 -3.93701e-006 7.87402e-006 0.000192913 0.000192913 0.000771654 0.000751969 -7.87402e-006 7.87402e-006 7.87402e-006 7.87402e-006c0.0527126,0.0527126 0.122339,0.0790709 0.192039,0.0790709 0.0697008,0 0.139327,-0.0263583 0.192039,-0.0790709l7.87402e-006 -7.87402e-006 3.06366 -3.06365c0.0527165,-0.0527165 0.0790787,-0.122343 0.0790787,-0.192047 0,-0.0697047 -0.0263622,-0.139335 -0.0790787,-0.192047l-0.121571 -0.121567c-0.0527126,-0.0527165 -0.122343,-0.0790787 -0.192047,-0.0790787 -0.0697047,0 -0.139331,0.0263622 -0.192047,0.0790787z"/></g><rect class="fil1" height="6.82666" width="6.82666"/></svg>