<?xml version="1.0" ?><svg height="512" viewBox="0 0 512 512" width="512" xmlns="http://www.w3.org/2000/svg"><g><g><rect fill="#5ec09b" height="464" rx="24" width="272" x="216" y="24"/><rect fill="#dae5e1" height="112" width="112" x="288" y="200"/><rect fill="#dae5e1" height="112" width="112" x="288" y="56"/><rect fill="#dae5e1" height="112" width="112" x="288" y="344"/><path d="M336,136a8,8,0,0,1-5.657-2.343l-16-16a8,8,0,0,1,11.314-11.314L336,116.688l26.341-26.344a8,8,0,0,1,11.315,11.312l-32,32A8,8,0,0,1,336,136Z" fill="#f98800"/><g><g><path d="M72,312V424a8,8,0,0,0,8,8h56a8,8,0,0,0,8-8v-8a16,16,0,0,1,16-16h0a16,16,0,0,1,16,16v8a8,8,0,0,0,8,8h56a8,8,0,0,0,8-8V312Z" fill="#eceff0"/><path d="M208,312V432h32a8,8,0,0,0,8-8V312Z" fill="#d1e1e5"/><path d="M112,432h0a48,48,0,0,1,48-48h0v16h0a16,16,0,0,0-16,16v8a8,8,0,0,1-8,8Z" fill="#d1e1e5"/><path d="M248,232V144a88,88,0,0,0-88-88h0a88,88,0,0,0-88,88v88h0a48,48,0,0,0-48,48v56H72V312H248V280h64V232Z" fill="#eceff0"/><path d="M72,320a8,8,0,0,1-8-8V280a8,8,0,0,1,16,0v32A8,8,0,0,1,72,320Z" fill="#d1e1e5"/><path d="M248,144a88,88,0,0,0-88-88h0A87.92,87.92,0,0,0,86.238,96H168a40,40,0,0,1,40,40V312h40Z" fill="#d1e1e5"/><g><rect fill="#fac8b2" height="96" rx="24" width="96" x="112" y="128"/><circle cx="136" cy="152" fill="#f97d7d" r="8"/><circle cx="184" cy="152" fill="#f97d7d" r="8"/><path d="M192,208H128a56,56,0,0,1,0-112h64a56,56,0,0,1,0,112Zm-64-96a40,40,0,0,0,0,80h64a40,40,0,0,0,0-80Z" fill="#00a8e7"/><path d="M160,112a8,8,0,0,1-8-8V56a8,8,0,0,1,16,0v48A8,8,0,0,1,160,112Z" fill="#00a8e7"/><path d="M160,408a8,8,0,0,1-8-8V232a8,8,0,0,1,16,0V400A8,8,0,0,1,160,408Z" fill="#00a8e7"/><rect fill="#ffdb43" height="48" width="32" x="96" y="192"/><rect fill="#ffdb43" height="48" width="32" x="192" y="192"/><path d="M144,184v16H128v32h64V200H176V184a16,16,0,0,0-16-16h0A16,16,0,0,0,144,184Z" fill="#5ec09b"/><rect fill="#00a8e7" height="16" rx="8" width="192" x="64" y="304"/><rect fill="#fcc200" height="24" width="32" x="96" y="216"/><rect fill="#fcc200" height="24" width="32" x="192" y="216"/><rect fill="#42a87e" height="16" width="64" x="128" y="216"/><path d="M176,200H160V168h0a16,16,0,0,1,16,16Z" fill="#42a87e"/></g><path d="M80,432v24H72a16,16,0,0,0-16,16v16h80V432Z" fill="#00a8e7"/><path d="M240,432v24h8a16,16,0,0,1,16,16v16H184V432Z" fill="#00a8e7"/><path d="M56,368h0a16,16,0,0,1-16,16h0a16,16,0,0,1-16-16V336H72v16a16,16,0,0,1-16,16Z" fill="#00a8e7"/><path d="M344,264h0a16,16,0,0,0,16-16h0a16,16,0,0,0-16-16H312v48h16a16,16,0,0,0,16-16Z" fill="#00a8e7"/><rect fill="#d1e1e5" height="16" width="64" x="248" y="264"/><rect fill="#0598c6" height="24" width="32" x="208" y="432"/><rect fill="#0598c6" height="56" width="24" x="112" y="432"/><path d="M56,336H72a0,0,0,0,1,0,0v16a16,16,0,0,1-16,16h0a0,0,0,0,1,0,0V336A0,0,0,0,1,56,336Z" fill="#0598c6"/><path d="M328,280H312V264h32A16,16,0,0,1,328,280Z" fill="#0598c6"/></g><path d="M336,424a8,8,0,0,1-5.657-2.343l-16-16a8,8,0,0,1,11.314-11.314L336,404.687l26.341-26.344a8,8,0,0,1,11.315,11.312l-32,32A8,8,0,0,1,336,424Z" fill="#f98800"/></g><path d="M456,120H432a8,8,0,0,1,0-16h24a8,8,0,0,1,0,16Z" fill="#42a87e"/><path d="M456,152H432a8,8,0,0,1,0-16h24a8,8,0,0,1,0,16Z" fill="#42a87e"/><path d="M456,88H432a8,8,0,0,1,0-16h24a8,8,0,0,1,0,16Z" fill="#42a87e"/><path d="M456,264H432a8,8,0,0,1,0-16h24a8,8,0,0,1,0,16Z" fill="#42a87e"/><path d="M456,296H432a8,8,0,0,1,0-16h24a8,8,0,0,1,0,16Z" fill="#42a87e"/><path d="M456,232H432a8,8,0,0,1,0-16h24a8,8,0,0,1,0,16Z" fill="#42a87e"/><path d="M456,408H432a8,8,0,0,1,0-16h24a8,8,0,0,1,0,16Z" fill="#42a87e"/><path d="M456,440H432a8,8,0,0,1,0-16h24a8,8,0,0,1,0,16Z" fill="#42a87e"/><path d="M456,376H432a8,8,0,0,1,0-16h24a8,8,0,0,1,0,16Z" fill="#42a87e"/></g><path d="M464,16H240a32.036,32.036,0,0,0-32,32V60.887C145.471,23.738,63.286,70.859,64,144v80.568A56.089,56.089,0,0,0,16,280v88c.5,27.038,37.358,33.062,46.629,8H64v48a16,16,0,0,0,8,13.835V448a24.027,24.027,0,0,0-24,24v16a8,8,0,0,0,8,8h80a8,8,0,0,0,8-8V437.835A16,16,0,0,0,152,424v-8c.4-10.6,15.6-10.6,16,0v8a16,16,0,0,0,8,13.835V488a8,8,0,0,0,8,8c53.7,0,223.533,0,280,0a32.036,32.036,0,0,0,32-32V48A32.036,32.036,0,0,0,464,16ZM296,288h32a24.044,24.044,0,0,0,22.969-17.031C377.011,262.5,371.7,224.66,344,224c-10.554,0-37.784,0-48,0V208h96v96H296Zm48-48c10.6.4,10.6,15.6,0,16a8,8,0,0,0-8,8,8.009,8.009,0,0,1-8,8h-8V240Zm-40,0v32H248a8,8,0,0,0-8,8v24H168V240h16a8,8,0,0,0,8,8h32a8,8,0,0,0,8-8V192c0-.265-.015-.526-.04-.784A56.232,56.232,0,0,0,240,180.885V232a8,8,0,0,0,8,8ZM192,112c38.3.2,54.538,48.933,24,72V152a32.036,32.036,0,0,0-32-32H136a32.036,32.036,0,0,0-32,32v32c-19.273-13.947-21.459-43.73-4.28-60.282A39.7,39.7,0,0,1,128,112Zm-40,80v-8a8,8,0,0,1,16,0v8Zm8-32a24.028,24.028,0,0,0-24,24v8a8,8,0,0,0-8-8h-8V152a16.019,16.019,0,0,1,16-16h48a16.019,16.019,0,0,1,16,16v32h-8a8,8,0,0,0-8,8v-8A24.028,24.028,0,0,0,160,160Zm40,40h16v32H200Zm-96,0h16v32H104Zm32,8h48v16H136ZM192,96H168V64.4a80.2,80.2,0,0,1,67,51.771A55.9,55.9,0,0,0,192,96ZM152,64.4V96H128a55.734,55.734,0,0,0-42.97,20.1A80.194,80.194,0,0,1,152,64.4ZM32,280a40.045,40.045,0,0,1,40-40,8,8,0,0,0,8-8V180.838a55.9,55.9,0,0,0,8.04,10.37c-.026.26-.04.524-.04.792v48a8,8,0,0,0,8,8h32a8,8,0,0,0,8-8h16v64H80V280a8,8,0,0,0-16,0c0,10.573,0,37.771,0,48H32Zm24,80a8,8,0,0,0-8,8,8,8,0,0,1-16,0V344H64v16Zm72,120H64v-8a8.009,8.009,0,0,1,8-8h8a8,8,0,0,0,8-8V440h40Zm8-64v8H80V320h72v73.376A24.039,24.039,0,0,0,136,416Zm32-22.624V320h72V424H184v-8A24.039,24.039,0,0,0,168,393.376ZM240,480H192V440h40v16a8,8,0,0,0,8,8h8a8.009,8.009,0,0,1,8,8v8Zm240-16a16.019,16.019,0,0,1-16,16H272v-8a24.027,24.027,0,0,0-24-24V437.835A16,16,0,0,0,256,424V288h24v24a8,8,0,0,0,8,8H400a8,8,0,0,0,8-8V200a8,8,0,0,0-8-8H288a8,8,0,0,0-8,8v24H256V144a95.78,95.78,0,0,0-32-71.488V48a16.019,16.019,0,0,1,16-16H464a16.019,16.019,0,0,1,16,16ZM400,48H288a8,8,0,0,0-8,8V168a8,8,0,0,0,8,8H400a8,8,0,0,0,8-8V56A8,8,0,0,0,400,48Zm-8,112H296V64h96Zm8,176H288a8,8,0,0,0-8,8V456a8,8,0,0,0,8,8H400a8,8,0,0,0,8-8V344A8,8,0,0,0,400,336Zm-8,112H296V352h96ZM144,152a8,8,0,0,1-8,8c-10.6-.392-10.6-15.609,0-16A8,8,0,0,1,144,152Zm40,8a8,8,0,0,1-8-8c.392-10.6,15.609-10.6,16,0A8,8,0,0,1,184,160Zm130.343-42.342c-7.23-7.749,3.569-18.541,11.314-11.314L336,116.688l26.341-26.344c7.732-7.225,18.55,3.556,11.315,11.312l-32,32a8,8,0,0,1-11.314,0Zm0,288c-7.23-7.749,3.569-18.541,11.314-11.314L336,404.687l26.341-26.344c7.732-7.225,18.55,3.556,11.315,11.312l-32,32a8,8,0,0,1-11.314,0ZM464,112a8,8,0,0,1-8,8H432c-10.594-.389-10.6-15.607,0-16h24A8,8,0,0,1,464,112Zm0,32a8,8,0,0,1-8,8H432c-10.594-.389-10.6-15.607,0-16h24A8,8,0,0,1,464,144Zm0-64a8,8,0,0,1-8,8H432c-10.594-.389-10.6-15.607,0-16h24A8,8,0,0,1,464,80Zm0,176a8,8,0,0,1-8,8H432c-10.594-.389-10.6-15.607,0-16h24A8,8,0,0,1,464,256Zm0,32a8,8,0,0,1-8,8H432c-10.594-.389-10.6-15.607,0-16h24A8,8,0,0,1,464,288Zm0-64a8,8,0,0,1-8,8H432c-10.594-.389-10.6-15.607,0-16h24A8,8,0,0,1,464,224Zm0,176a8,8,0,0,1-8,8H432c-10.594-.389-10.6-15.607,0-16h24A8,8,0,0,1,464,400Zm0,32a8,8,0,0,1-8,8H432c-10.594-.389-10.6-15.607,0-16h24A8,8,0,0,1,464,432Zm0-64a8,8,0,0,1-8,8H432c-10.594-.389-10.6-15.607,0-16h24A8,8,0,0,1,464,368Z"/></g></svg>